%TF.GenerationSoftware,KiCad,Pcbnew,(5.1.12-1-10_14)*%
%TF.CreationDate,2021-12-12T23:14:55+01:00*%
%TF.ProjectId,Raspberry_modular,52617370-6265-4727-9279-5f6d6f64756c,rev?*%
%TF.SameCoordinates,Original*%
%TF.FileFunction,Copper,L2,Bot*%
%TF.FilePolarity,Positive*%
%FSLAX46Y46*%
G04 Gerber Fmt 4.6, Leading zero omitted, Abs format (unit mm)*
G04 Created by KiCad (PCBNEW (5.1.12-1-10_14)) date 2021-12-12 23:14:55*
%MOMM*%
%LPD*%
G01*
G04 APERTURE LIST*
%TA.AperFunction,ComponentPad*%
%ADD10C,1.778000*%
%TD*%
%TA.AperFunction,ComponentPad*%
%ADD11C,1.524000*%
%TD*%
%TA.AperFunction,ComponentPad*%
%ADD12R,1.524000X1.524000*%
%TD*%
%TA.AperFunction,ViaPad*%
%ADD13C,0.800000*%
%TD*%
%TA.AperFunction,Conductor*%
%ADD14C,0.500000*%
%TD*%
%TA.AperFunction,Conductor*%
%ADD15C,0.250000*%
%TD*%
G04 APERTURE END LIST*
D10*
%TO.P,U$5,10*%
%TO.N,GND*%
X50508000Y-66002000D03*
%TO.P,U$5,9*%
X47968000Y-66002000D03*
%TO.P,U$5,8*%
X45428000Y-66002000D03*
%TO.P,U$5,7*%
X42888000Y-66002000D03*
%TO.P,U$5,6*%
X40348000Y-66002000D03*
%TO.P,U$5,5*%
X37808000Y-66002000D03*
%TO.P,U$5,4*%
X35268000Y-66002000D03*
%TO.P,U$5,3*%
X32728000Y-66002000D03*
%TO.P,U$5,2*%
X30188000Y-66002000D03*
%TO.P,U$5,1*%
X27648000Y-66002000D03*
%TD*%
%TO.P,U$3,10*%
%TO.N,/RG9*%
X50508000Y-63462000D03*
%TO.P,U$3,9*%
%TO.N,/RG8*%
X47968000Y-63462000D03*
%TO.P,U$3,8*%
%TO.N,/RG7*%
X45428000Y-63462000D03*
%TO.P,U$3,7*%
%TO.N,/RG6*%
X42888000Y-63462000D03*
%TO.P,U$3,6*%
%TO.N,/RG5*%
X40348000Y-63462000D03*
%TO.P,U$3,5*%
%TO.N,/RG4*%
X37808000Y-63462000D03*
%TO.P,U$3,4*%
%TO.N,/RG3*%
X35268000Y-63462000D03*
%TO.P,U$3,3*%
%TO.N,/RG2*%
X32728000Y-63462000D03*
%TO.P,U$3,2*%
%TO.N,/RG1*%
X30188000Y-63462000D03*
%TO.P,U$3,1*%
%TO.N,/RG0*%
X27648000Y-63462000D03*
%TD*%
%TO.P,JP7,8*%
%TO.N,GND*%
X88100000Y-66002000D03*
%TO.P,JP7,7*%
X85560000Y-66002000D03*
%TO.P,JP7,6*%
X83020000Y-66002000D03*
%TO.P,JP7,5*%
X80480000Y-66002000D03*
%TO.P,JP7,4*%
X77940000Y-66002000D03*
%TO.P,JP7,3*%
X75400000Y-66002000D03*
%TO.P,JP7,2*%
X72860000Y-66002000D03*
%TO.P,JP7,1*%
X70320000Y-66002000D03*
%TD*%
%TO.P,JP5,8*%
%TO.N,/D8*%
X88100000Y-63462000D03*
%TO.P,JP5,7*%
%TO.N,/D7*%
X85560000Y-63462000D03*
%TO.P,JP5,6*%
%TO.N,/D6*%
X83020000Y-63462000D03*
%TO.P,JP5,5*%
%TO.N,/D5*%
X80480000Y-63462000D03*
%TO.P,JP5,4*%
%TO.N,/D4*%
X77940000Y-63462000D03*
%TO.P,JP5,3*%
%TO.N,/D3*%
X75400000Y-63462000D03*
%TO.P,JP5,2*%
%TO.N,/D2*%
X72860000Y-63462000D03*
%TO.P,JP5,1*%
%TO.N,/D1*%
X70320000Y-63462000D03*
%TD*%
%TO.P,JP3,6*%
%TO.N,GND*%
X65748000Y-66002000D03*
%TO.P,JP3,5*%
X63208000Y-66002000D03*
%TO.P,JP3,4*%
X60668000Y-66002000D03*
%TO.P,JP3,3*%
X58128000Y-66002000D03*
%TO.P,JP3,2*%
X55588000Y-66002000D03*
%TO.P,JP3,1*%
X53048000Y-66002000D03*
%TD*%
%TO.P,JP1,6*%
%TO.N,/RG15*%
X65748000Y-63462000D03*
%TO.P,JP1,5*%
%TO.N,/RG14*%
X63208000Y-63462000D03*
%TO.P,JP1,4*%
%TO.N,/RG13*%
X60668000Y-63462000D03*
%TO.P,JP1,3*%
%TO.N,/RG12*%
X58128000Y-63462000D03*
%TO.P,JP1,2*%
%TO.N,/RG11*%
X55588000Y-63462000D03*
%TO.P,JP1,1*%
%TO.N,/RG10*%
X53048000Y-63462000D03*
%TD*%
D11*
%TO.P,J1,40*%
%TO.N,N/C*%
X82086000Y-27432000D03*
%TO.P,J1,38*%
%TO.N,/D8*%
X79546000Y-27432000D03*
%TO.P,J1,36*%
%TO.N,/D7*%
X77006000Y-27432000D03*
%TO.P,J1,34*%
%TO.N,GND*%
X74466000Y-27432000D03*
%TO.P,J1,32*%
%TO.N,/D6*%
X71926000Y-27432000D03*
%TO.P,J1,30*%
%TO.N,GND*%
X69386000Y-27432000D03*
%TO.P,J1,39*%
X82086000Y-29972000D03*
%TO.P,J1,37*%
%TO.N,/D5*%
X79546000Y-29972000D03*
%TO.P,J1,35*%
%TO.N,/D4*%
X77006000Y-29972000D03*
%TO.P,J1,33*%
%TO.N,/D3*%
X74466000Y-29972000D03*
%TO.P,J1,31*%
%TO.N,/D2*%
X71926000Y-29972000D03*
%TO.P,J1,29*%
%TO.N,/D1*%
X69386000Y-29972000D03*
%TO.P,J1,28*%
%TO.N,N/C*%
X66846000Y-27432000D03*
%TO.P,J1,27*%
X66846000Y-29972000D03*
%TO.P,J1,26*%
%TO.N,/GPIO7*%
X64306000Y-27432000D03*
%TO.P,J1,24*%
%TO.N,/GPIO8*%
X61766000Y-27432000D03*
%TO.P,J1,22*%
%TO.N,N/C*%
X59226000Y-27432000D03*
%TO.P,J1,20*%
%TO.N,GND*%
X56686000Y-27432000D03*
%TO.P,J1,18*%
%TO.N,N/C*%
X54146000Y-27432000D03*
%TO.P,J1,16*%
X51606000Y-27432000D03*
%TO.P,J1,25*%
%TO.N,GND*%
X64306000Y-29972000D03*
%TO.P,J1,23*%
%TO.N,/GPIO11*%
X61766000Y-29972000D03*
%TO.P,J1,21*%
%TO.N,/GPIO9*%
X59226000Y-29972000D03*
%TO.P,J1,19*%
%TO.N,/GPIO10*%
X56686000Y-29972000D03*
%TO.P,J1,17*%
%TO.N,/3V3_REG*%
X54146000Y-29972000D03*
%TO.P,J1,15*%
%TO.N,N/C*%
X51606000Y-29972000D03*
%TO.P,J1,14*%
%TO.N,GND*%
X49066000Y-27432000D03*
%TO.P,J1,13*%
%TO.N,N/C*%
X49066000Y-29972000D03*
%TO.P,J1,12*%
X46526000Y-27432000D03*
%TO.P,J1,10*%
X43986000Y-27432000D03*
%TO.P,J1,8*%
X41446000Y-27432000D03*
%TO.P,J1,6*%
%TO.N,GND*%
X38906000Y-27432000D03*
%TO.P,J1,4*%
%TO.N,+5V*%
X36366000Y-27432000D03*
%TO.P,J1,2*%
X33826000Y-27432000D03*
%TO.P,J1,11*%
%TO.N,N/C*%
X46526000Y-29972000D03*
%TO.P,J1,9*%
%TO.N,GND*%
X43986000Y-29972000D03*
%TO.P,J1,7*%
%TO.N,N/C*%
X41446000Y-29972000D03*
%TO.P,J1,5*%
X38906000Y-29972000D03*
%TO.P,J1,3*%
X36366000Y-29972000D03*
D12*
%TO.P,J1,1*%
%TO.N,/3V3_REG*%
X33826000Y-29972000D03*
%TD*%
D13*
%TO.N,GND*%
X65748000Y-45936000D03*
X27140000Y-45936000D03*
X62954000Y-45936000D03*
X60160000Y-45936000D03*
X57874000Y-45936000D03*
X55334000Y-45936000D03*
X52540000Y-45936000D03*
X50000000Y-45936000D03*
X47460000Y-45936000D03*
X44920000Y-45936000D03*
X42380000Y-45936000D03*
X39840000Y-45936000D03*
X37300000Y-45936000D03*
X35327495Y-45995495D03*
X32728000Y-45936000D03*
X30188000Y-45936000D03*
X47714000Y-35522000D03*
X48222000Y-40348000D03*
X38570000Y-32728000D03*
X33490000Y-33744000D03*
X63716000Y-35522000D03*
X63716000Y-40348000D03*
%TO.N,/D8*%
X88100000Y-33998000D03*
%TO.N,/D7*%
X85560000Y-36538000D03*
%TO.N,/D6*%
X83020000Y-39078000D03*
%TO.N,/GPIO11*%
X43396000Y-31839194D03*
X54826000Y-31712000D03*
X57874000Y-31204000D03*
%TO.N,/GPIO9*%
X43396000Y-32791597D03*
X55334000Y-32728000D03*
%TO.N,/GPIO10*%
X43396000Y-33744000D03*
X56686000Y-32646000D03*
%TO.N,/3V3_REG*%
X68542000Y-55842000D03*
X86830000Y-55842000D03*
X71590000Y-55842000D03*
X74130000Y-55842000D03*
X76670000Y-55842000D03*
X79210000Y-55842000D03*
X81750000Y-55842000D03*
X84290000Y-55842000D03*
%TD*%
D14*
%TO.N,GND*%
X65748000Y-45936000D02*
X62954000Y-45936000D01*
X62954000Y-45936000D02*
X60160000Y-45936000D01*
X60160000Y-45936000D02*
X57874000Y-45936000D01*
X57874000Y-45936000D02*
X55334000Y-45936000D01*
X55334000Y-45936000D02*
X52540000Y-45936000D01*
X52540000Y-45936000D02*
X50000000Y-45936000D01*
X50000000Y-45936000D02*
X47460000Y-45936000D01*
X47460000Y-45936000D02*
X44920000Y-45936000D01*
X44920000Y-45936000D02*
X42380000Y-45936000D01*
X42380000Y-45936000D02*
X39840000Y-45936000D01*
X39840000Y-45936000D02*
X37300000Y-45936000D01*
X37300000Y-45936000D02*
X32728000Y-45936000D01*
X30188000Y-45936000D02*
X27140000Y-45936000D01*
X32728000Y-45936000D02*
X30188000Y-45936000D01*
X47714000Y-35522000D02*
X48222000Y-36030000D01*
X48222000Y-36030000D02*
X48222000Y-40348000D01*
X38570000Y-32728000D02*
X34252000Y-32728000D01*
X33490000Y-33490000D02*
X33490000Y-33744000D01*
X34252000Y-32728000D02*
X33490000Y-33490000D01*
X63716000Y-35522000D02*
X63716000Y-40348000D01*
D15*
%TO.N,/D8*%
X80734000Y-28620000D02*
X79546000Y-27432000D01*
X86322000Y-32220000D02*
X82258000Y-32220000D01*
X80734000Y-30696000D02*
X80734000Y-28620000D01*
X82258000Y-32220000D02*
X80734000Y-30696000D01*
X88100000Y-33998000D02*
X86322000Y-32220000D01*
%TO.N,/D7*%
X85560000Y-36538000D02*
X82766000Y-33744000D01*
X82766000Y-33744000D02*
X80734000Y-33744000D01*
X80734000Y-33744000D02*
X78194000Y-31204000D01*
X78194000Y-28620000D02*
X77006000Y-27432000D01*
X78194000Y-31204000D02*
X78194000Y-28620000D01*
%TO.N,/D6*%
X74384000Y-32220000D02*
X73114000Y-30950000D01*
X73114000Y-30950000D02*
X73114000Y-28620000D01*
X76162000Y-32220000D02*
X74384000Y-32220000D01*
X73114000Y-28620000D02*
X71926000Y-27432000D01*
X83020000Y-39078000D02*
X76162000Y-32220000D01*
%TO.N,/GPIO11*%
X43396000Y-31839194D02*
X54698806Y-31839194D01*
X57874000Y-31204000D02*
X59144000Y-32474000D01*
X59144000Y-32474000D02*
X60668000Y-32474000D01*
X61766000Y-31376000D02*
X61766000Y-29972000D01*
X60668000Y-32474000D02*
X61766000Y-31376000D01*
%TO.N,/GPIO9*%
X55270403Y-32791597D02*
X55334000Y-32728000D01*
X43396000Y-32791597D02*
X55270403Y-32791597D01*
%TO.N,/GPIO10*%
X43396000Y-33744000D02*
X55588000Y-33744000D01*
X56686000Y-32646000D02*
X55588000Y-33744000D01*
X56686000Y-29972000D02*
X56686000Y-32646000D01*
D14*
%TO.N,/3V3_REG*%
X68542000Y-55842000D02*
X71590000Y-55842000D01*
X71590000Y-55842000D02*
X74130000Y-55842000D01*
X74130000Y-55842000D02*
X76670000Y-55842000D01*
X76670000Y-55842000D02*
X79210000Y-55842000D01*
X79210000Y-55842000D02*
X81750000Y-55842000D01*
X84290000Y-55842000D02*
X86830000Y-55842000D01*
X81750000Y-55842000D02*
X84290000Y-55842000D01*
%TD*%
M02*
