%TF.GenerationSoftware,KiCad,Pcbnew,(5.1.12-1-10_14)*%
%TF.CreationDate,2021-12-12T23:14:55+01:00*%
%TF.ProjectId,Raspberry_modular,52617370-6265-4727-9279-5f6d6f64756c,rev?*%
%TF.SameCoordinates,Original*%
%TF.FileFunction,Soldermask,Bot*%
%TF.FilePolarity,Negative*%
%FSLAX46Y46*%
G04 Gerber Fmt 4.6, Leading zero omitted, Abs format (unit mm)*
G04 Created by KiCad (PCBNEW (5.1.12-1-10_14)) date 2021-12-12 23:14:55*
%MOMM*%
%LPD*%
G01*
G04 APERTURE LIST*
%ADD10C,1.879600*%
%ADD11C,1.625600*%
%ADD12C,2.700000*%
G04 APERTURE END LIST*
D10*
%TO.C,U$5*%
X50508000Y-66002000D03*
X47968000Y-66002000D03*
X45428000Y-66002000D03*
X42888000Y-66002000D03*
X40348000Y-66002000D03*
X37808000Y-66002000D03*
X35268000Y-66002000D03*
X32728000Y-66002000D03*
X30188000Y-66002000D03*
X27648000Y-66002000D03*
%TD*%
%TO.C,U$3*%
X50508000Y-63462000D03*
X47968000Y-63462000D03*
X45428000Y-63462000D03*
X42888000Y-63462000D03*
X40348000Y-63462000D03*
X37808000Y-63462000D03*
X35268000Y-63462000D03*
X32728000Y-63462000D03*
X30188000Y-63462000D03*
X27648000Y-63462000D03*
%TD*%
%TO.C,JP7*%
X88100000Y-66002000D03*
X85560000Y-66002000D03*
X83020000Y-66002000D03*
X80480000Y-66002000D03*
X77940000Y-66002000D03*
X75400000Y-66002000D03*
X72860000Y-66002000D03*
X70320000Y-66002000D03*
%TD*%
%TO.C,JP5*%
X88100000Y-63462000D03*
X85560000Y-63462000D03*
X83020000Y-63462000D03*
X80480000Y-63462000D03*
X77940000Y-63462000D03*
X75400000Y-63462000D03*
X72860000Y-63462000D03*
X70320000Y-63462000D03*
%TD*%
%TO.C,JP3*%
X65748000Y-66002000D03*
X63208000Y-66002000D03*
X60668000Y-66002000D03*
X58128000Y-66002000D03*
X55588000Y-66002000D03*
X53048000Y-66002000D03*
%TD*%
%TO.C,JP1*%
X65748000Y-63462000D03*
X63208000Y-63462000D03*
X60668000Y-63462000D03*
X58128000Y-63462000D03*
X55588000Y-63462000D03*
X53048000Y-63462000D03*
%TD*%
D11*
%TO.C,J1*%
X82086000Y-27432000D03*
X79546000Y-27432000D03*
X77006000Y-27432000D03*
X74466000Y-27432000D03*
X71926000Y-27432000D03*
X69386000Y-27432000D03*
X82086000Y-29972000D03*
X79546000Y-29972000D03*
X77006000Y-29972000D03*
X74466000Y-29972000D03*
X71926000Y-29972000D03*
X69386000Y-29972000D03*
X66846000Y-27432000D03*
X66846000Y-29972000D03*
X64306000Y-27432000D03*
X61766000Y-27432000D03*
X59226000Y-27432000D03*
X56686000Y-27432000D03*
X54146000Y-27432000D03*
X51606000Y-27432000D03*
X64306000Y-29972000D03*
X61766000Y-29972000D03*
X59226000Y-29972000D03*
X56686000Y-29972000D03*
X54146000Y-29972000D03*
X51606000Y-29972000D03*
X49066000Y-27432000D03*
X49066000Y-29972000D03*
X46526000Y-27432000D03*
X43986000Y-27432000D03*
X41446000Y-27432000D03*
X38906000Y-27432000D03*
X36366000Y-27432000D03*
X33826000Y-27432000D03*
X46526000Y-29972000D03*
X43986000Y-29972000D03*
X41446000Y-29972000D03*
X38906000Y-29972000D03*
X36366000Y-29972000D03*
G36*
G01*
X33013200Y-30734000D02*
X33013200Y-29210000D01*
G75*
G02*
X33064000Y-29159200I50800J0D01*
G01*
X34588000Y-29159200D01*
G75*
G02*
X34638800Y-29210000I0J-50800D01*
G01*
X34638800Y-30734000D01*
G75*
G02*
X34588000Y-30784800I-50800J0D01*
G01*
X33064000Y-30784800D01*
G75*
G02*
X33013200Y-30734000I0J50800D01*
G01*
G37*
%TD*%
D12*
%TO.C,H2*%
X86956000Y-77702000D03*
%TD*%
%TO.C,H1*%
X28956000Y-28702000D03*
%TD*%
%TO.C,H4*%
X28956000Y-77702000D03*
%TD*%
%TO.C,H3*%
X86956000Y-28702000D03*
%TD*%
M02*
