M48
; DRILL file {KiCad (5.1.12-1-10_14)} date 2021 December 12, Sunday 23:14:11
; FORMAT={-:-/ absolute / inch / decimal}
; #@! TF.CreationDate,2021-12-12T23:14:11+01:00
; #@! TF.GenerationSoftware,Kicad,Pcbnew,(5.1.12-1-10_14)
; #@! TF.FileFunction,Plated,1,2,PTH
FMAT,2
INCH
T1C0.0157
T2C0.0400
%
G90
G05
T1
X1.0685Y-1.8085
X1.1885Y-1.8085
X1.2885Y-1.8085
X1.3185Y-1.3285
X1.3908Y-1.8108
X1.4685Y-1.8085
X1.5185Y-1.2885
X1.5685Y-1.8085
X1.6685Y-1.8085
X1.7085Y-1.2535
X1.7085Y-1.291
X1.7085Y-1.3285
X1.7685Y-1.8085
X1.8685Y-1.8085
X1.8785Y-1.3985
X1.8985Y-1.5885
X1.9685Y-1.8085
X2.0685Y-1.8085
X2.1585Y-1.2485
X2.1785Y-1.2885
X2.1785Y-1.8085
X2.2317Y-1.2853
X2.2785Y-1.2285
X2.2785Y-1.8085
X2.3685Y-1.8085
X2.4785Y-1.8085
X2.5085Y-1.3985
X2.5085Y-1.5885
X2.5885Y-1.8085
X2.6985Y-2.1985
X2.8185Y-2.1985
X2.9185Y-2.1985
X3.0185Y-2.1985
X3.1185Y-2.1985
X3.2185Y-2.1985
X3.2685Y-1.5385
X3.3185Y-2.1985
X3.3685Y-1.4385
X3.4185Y-2.1985
X3.4685Y-1.3385
T2
X1.0885Y-2.4985
X1.0885Y-2.5985
X1.1885Y-2.4985
X1.1885Y-2.5985
X1.2885Y-2.4985
X1.2885Y-2.5985
X1.3317Y-1.08
X1.3317Y-1.18
X1.3885Y-2.4985
X1.3885Y-2.5985
X1.4317Y-1.08
X1.4317Y-1.18
X1.4885Y-2.4985
X1.4885Y-2.5985
X1.5317Y-1.08
X1.5317Y-1.18
X1.5885Y-2.4985
X1.5885Y-2.5985
X1.6317Y-1.08
X1.6317Y-1.18
X1.6885Y-2.4985
X1.6885Y-2.5985
X1.7317Y-1.08
X1.7317Y-1.18
X1.7885Y-2.4985
X1.7885Y-2.5985
X1.8317Y-1.08
X1.8317Y-1.18
X1.8885Y-2.4985
X1.8885Y-2.5985
X1.9317Y-1.08
X1.9317Y-1.18
X1.9885Y-2.4985
X1.9885Y-2.5985
X2.0317Y-1.08
X2.0317Y-1.18
X2.0885Y-2.4985
X2.0885Y-2.5985
X2.1317Y-1.08
X2.1317Y-1.18
X2.1885Y-2.4985
X2.1885Y-2.5985
X2.2317Y-1.08
X2.2317Y-1.18
X2.2885Y-2.4985
X2.2885Y-2.5985
X2.3317Y-1.08
X2.3317Y-1.18
X2.3885Y-2.4985
X2.3885Y-2.5985
X2.4317Y-1.08
X2.4317Y-1.18
X2.4885Y-2.4985
X2.4885Y-2.5985
X2.5317Y-1.08
X2.5317Y-1.18
X2.5885Y-2.4985
X2.5885Y-2.5985
X2.6317Y-1.08
X2.6317Y-1.18
X2.7317Y-1.08
X2.7317Y-1.18
X2.7685Y-2.4985
X2.7685Y-2.5985
X2.8317Y-1.08
X2.8317Y-1.18
X2.8685Y-2.4985
X2.8685Y-2.5985
X2.9317Y-1.08
X2.9317Y-1.18
X2.9685Y-2.4985
X2.9685Y-2.5985
X3.0317Y-1.08
X3.0317Y-1.18
X3.0685Y-2.4985
X3.0685Y-2.5985
X3.1317Y-1.08
X3.1317Y-1.18
X3.1685Y-2.4985
X3.1685Y-2.5985
X3.2317Y-1.08
X3.2317Y-1.18
X3.2685Y-2.4985
X3.2685Y-2.5985
X3.3685Y-2.4985
X3.3685Y-2.5985
X3.4685Y-2.4985
X3.4685Y-2.5985
T0
M30
